# xmcd CD database file
#
# Track frame offsets:
#	150
#	19980
#	31912
#	50032
#	62106
#	84016
#	97437
#	115235
#	133357
#	142222
#	156694
#	168372
#	180047
#	195146
#
# Disc length: 2862 seconds
#
# Revision: 0
# Processed by: cddbd v1.5.2PL0 Copyright (c) Steve Scherf et al.
# Submitted via: CDex 1.70beta2
#
DISCID=c50b2c0e
DTITLE=Isla Grant - Isla Sings Hank
DYEAR=1900
DGENRE=Country
TTITLE0=You Win again
TTITLE1=Move it On Over
TTITLE2=There'll be no more Teardrops Tonight
TTITLE3=Why should we try anymore
TTITLE4=Cold Cold Heart
TTITLE5=Hey Good Lookin
TTITLE6=Take these Chains
TTITLE7=Kawliga
TTITLE8=Why don't you love me
TTITLE9=When God comes and gather His Jewels
TTITLE10=Setting the woods on Fire
TTITLE11=Baby we're really in Love
TTITLE12=I'm so lonesome I could cry
TTITLE13=Lovesick Blues
EXTD=
EXTT0=
EXTT1=
EXTT2=
EXTT3=
EXTT4=
EXTT5=
EXTT6=
EXTT7=
EXTT8=
EXTT9=
EXTT10=
EXTT11=
EXTT12=
EXTT13=
PLAYORDER=
